<svg xmlns="http://www.w3.org/2000/svg" viewBox="0 0 1000 181">
  <path d="M961.3,44.4c-51.3,0-92.8,39.8-92.8,88.9s41.6,88.9,92.8,88.9c51.3,0,92.8-39.8,92.8-88.9S1012.5,44.4,961.3,44.4z" fill="#F47216"/>
  <path d="M616.6,90.5h-31.1v86.4h31.1c27,0,45.9-16.8,45.9-43.2C662.6,107.3,643.7,90.5,616.6,90.5z"/>
  <path d="M1000,0H0v181h1000V0z M108.2,144c-5.5,1.7-12.7,2.7-21.2,2.7H54.2V90.5h32.5c7.9,0,13.8,0.5,19.3,2.2 c5.7,1.8,10.4,4.5,14.2,8.2c3.3,3.3,5.8,7.3,7.5,12c1.7,4.7,2.6,9.5,2.6,14.4c0,9.2-2.9,17.2-8.8,23.5 C117.8,135.2,113.7,140.4,108.2,144z M159.3,115.9c4.3-2.6,11.1-5.3,22-5.3c12.2,0,18.8,2.5,24.3,4.9v23.7 c-6.3-4.1-15.2-7.8-24.2-7.8c-10.2,0-15.7,4.1-15.7,10.1c0,6,5,9.3,17.6,14.2c22.4,8.2,29.2,16.2,29.2,31.2 c0,19.2-14.9,31.6-40.1,31.6c-9.4,0-21.6-2-29.3-5.1v-25.1c7.4,4.7,19.7,9.1,29.9,9.1c11.3,0,16.9-3.8,16.9-9.9 c0-5.5-4.2-8.4-14.9-12.3c-21.7-8-31.7-16.2-31.7-33.4C143.3,129.2,149.1,121.8,159.3,115.9z M257.4,146.7h-43.2 c0.8,7.7,7.2,14.3,17.9,14.3c8.8,0,15.8-3.1,23.4-9.7v19.5c-8,4.5-18,7.3-28.4,7.3c-24,0-41.5-14.5-41.5-43 c0-24,14.5-45.4,40.4-45.4c18.8,0,32.8,12.4,32.8,38.3C259,134.8,258.5,141.1,257.4,146.7z M321.5,176.5h-10.8 c-11.8,0-16.5-3.8-16.5-14.5v-46.5h-10.4V96.2h10.4V76.7h22.5v19.5h14.5v19.4h-14.5v35.9c0,3.7,0.9,5.3,5.8,5.3h8.9V176.5z  M335.5,68.9H358v84.2c0,9.3,2.9,11.6,11.1,11.6c2.1,0,4.1-0.1,5.9-0.6v17.4c-3.6,1.1-8.6,1.7-14.5,1.7c-18.1,0-25-8.4-25-27.1 V68.9z M389.2,68.9h22.6v107.7h-22.6V68.9z M501.6,176.5L482,140.9h-5.6v35.7h-22.6V90.5h35c24.3,0,39.1,10.9,39.1,27.3 c0,11.1-7.3,20.9-18.5,25.3l22.8,33.5H501.6z M539.2,68.9h22.6v107.7h-22.6V68.9z M661.8,133.8c0,26.4-18.1,45-46.3,45H584V90.5 h31.7C642.5,90.5,661.8,107.8,661.8,133.8z M668.5,68.9h22.6v107.7h-22.6V68.9z M726.1,176.5h-22.6V68.9h22.6v42l24.8-37.3 h25.1l-27.5,40.9l31.2,62.2h-25.1l-19.6-39.4l-8.9,12.2V176.5z M866.2,146.7H823c0.8,7.7,7.2,14.3,17.9,14.3 c8.8,0,15.8-3.1,23.4-9.7v19.5c-8,4.5-18,7.3-28.4,7.3c-24,0-41.5-14.5-41.5-43c0-24,14.5-45.4,40.4-45.4 c18.8,0,32.8,12.4,32.8,38.3C867.8,134.8,867.3,141.1,866.2,146.7z" fill="#000000"/>
  <path d="M214.8,128.5c-0.8-9.5-6.7-14.5-15.8-14.5c-9,0-15.4,5.1-16.9,14.5H214.8z M823.6,128.5c-0.8-9.5-6.7-14.5-15.8-14.5 c-9,0-15.4,5.1-16.9,14.5H823.6z" fill="#F47216"/>
  <path d="M458.6,125.5c0,5.5-4.5,9.9-12.7,9.9h-13.1v-19.8h13.1C453.8,115.6,458.6,120.1,458.6,125.5z M122.1,126.3 c0-4.9-1.5-9.1-4.5-12.5c-3.8-4.2-9.7-6.6-18.3-6.6h-9.5v37.8H99c7.1,0,13.1-2.1,17.4-6.4C120.3,134.9,122.1,130.9,122.1,126.3z" fill="#F47216"/>
</svg> 